<svg xmlns="http://www.w3.org/2000/svg" viewBox="0 0 400 300" width="400" height="300">
  <rect width="400" height="300" fill="#064E3B" rx="16"/>
  
  <!-- green cutting mat with grid -->
  <rect x="60" y="65" width="280" height="170" rx="6" fill="#065F46"/>
  <!-- grid lines -->
  <line x1="80" y1="65" x2="80" y2="235" stroke="#047857" stroke-width="1"/>
  <line x1="100" y1="65" x2="100" y2="235" stroke="#047857" stroke-width="1"/>
  <line x1="120" y1="65" x2="120" y2="235" stroke="#047857" stroke-width="1"/>
  <line x1="140" y1="65" x2="140" y2="235" stroke="#047857" stroke-width="1"/>
  <line x1="160" y1="65" x2="160" y2="235" stroke="#047857" stroke-width="1"/>
  <line x1="180" y1="65" x2="180" y2="235" stroke="#047857" stroke-width="1"/>
  <line x1="200" y1="65" x2="200" y2="235" stroke="#047857" stroke-width="1"/>
  <line x1="220" y1="65" x2="220" y2="235" stroke="#047857" stroke-width="1"/>
  <line x1="240" y1="65" x2="240" y2="235" stroke="#047857" stroke-width="1"/>
  <line x1="260" y1="65" x2="260" y2="235" stroke="#047857" stroke-width="1"/>
  <line x1="280" y1="65" x2="280" y2="235" stroke="#047857" stroke-width="1"/>
  <line x1="300" y1="65" x2="300" y2="235" stroke="#047857" stroke-width="1"/>
  <line x1="60" y1="85" x2="340" y2="85" stroke="#047857" stroke-width="1"/>
  <line x1="60" y1="105" x2="340" y2="105" stroke="#047857" stroke-width="1"/>
  <line x1="60" y1="125" x2="340" y2="125" stroke="#047857" stroke-width="1"/>
  <line x1="60" y1="145" x2="340" y2="145" stroke="#047857" stroke-width="1"/>
  <line x1="60" y1="165" x2="340" y2="165" stroke="#047857" stroke-width="1"/>
  <line x1="60" y1="185" x2="340" y2="185" stroke="#047857" stroke-width="1"/>
  <line x1="60" y1="205" x2="340" y2="205" stroke="#047857" stroke-width="1"/>
  <line x1="60" y1="225" x2="340" y2="225" stroke="#047857" stroke-width="1"/>
  <!-- border -->
  <rect x="60" y="65" width="280" height="170" rx="6" fill="none" stroke="#10B981" stroke-width="3"/>
  <!-- knife cut mark -->
  <line x1="130" y1="65" x2="190" y2="235" stroke="#6EE7B7" stroke-width="2" stroke-dasharray="8,4" opacity="0.6"/>

</svg>