<svg xmlns="http://www.w3.org/2000/svg" viewBox="0 0 400 300" width="400" height="300">
  <rect width="400" height="300" fill="#1E293B" rx="16"/>
  
  <!-- heat gun tool -->
  <!-- body barrel -->
  <rect x="100" y="105" width="160" height="50" rx="12" fill="#374151"/>
  <!-- nozzle -->
  <polygon points="260,110 310,118 310,142 260,150" fill="#4B5563"/>
  <!-- air holes -->
  <circle cx="285" cy="122" r="4" fill="#1F2937"/>
  <circle cx="295" cy="130" r="4" fill="#1F2937"/>
  <circle cx="285" cy="138" r="4" fill="#1F2937"/>
  <!-- handle -->
  <rect x="140" y="150" width="50" height="90" rx="10" fill="#374151"/>
  <rect x="148" y="200" width="34" height="12" rx="4" fill="#4B5563"/>
  <!-- trigger -->
  <rect x="165" y="155" width="20" height="30" rx="5" fill="#6B7280"/>
  <!-- power cord -->
  <path d="M145 240 Q130 255 110 260 Q90 265 80 240" fill="none" stroke="#6B7280" stroke-width="5"/>
  <!-- heat waves -->
  <path d="M312 118 Q325 118 320 128 Q315 138 328 138" fill="none" stroke="#EF4444" stroke-width="2.5"/>
  <path d="M312 125 Q330 125 325 135 Q320 145 335 145" fill="none" stroke="#F59E0B" stroke-width="2.5"/>

</svg>