<svg xmlns="http://www.w3.org/2000/svg" viewBox="0 0 400 300" width="400" height="300">
  <rect width="400" height="300" fill="#0C1A2E" rx="16"/>
  
  <!-- LED strip for light box -->
  <!-- strip board -->
  <rect x="60" y="130" width="280" height="40" rx="8" fill="#064E3B"/>
  <!-- LED chips on strip -->
  <rect x="80" y="138" width="18" height="18" rx="3" fill="#FDE68A"/>
  <circle cx="89" cy="147" r="7" fill="white" opacity="0.9"/>
  <rect x="115" y="138" width="18" height="18" rx="3" fill="#FDE68A"/>
  <circle cx="124" cy="147" r="7" fill="white" opacity="0.9"/>
  <rect x="150" y="138" width="18" height="18" rx="3" fill="#FDE68A"/>
  <circle cx="159" cy="147" r="7" fill="white" opacity="0.9"/>
  <rect x="185" y="138" width="18" height="18" rx="3" fill="#FDE68A"/>
  <circle cx="194" cy="147" r="7" fill="white" opacity="0.9"/>
  <rect x="220" y="138" width="18" height="18" rx="3" fill="#FDE68A"/>
  <circle cx="229" cy="147" r="7" fill="white" opacity="0.9"/>
  <rect x="255" y="138" width="18" height="18" rx="3" fill="#FDE68A"/>
  <circle cx="264" cy="147" r="7" fill="white" opacity="0.9"/>
  <rect x="290" y="138" width="18" height="18" rx="3" fill="#FDE68A"/>
  <circle cx="299" cy="147" r="7" fill="white" opacity="0.9"/>
  <!-- glow line -->
  <rect x="60" y="108" width="280" height="22" rx="4" fill="#FDE68A" opacity="0.3"/>
  <!-- connector at end -->
  <rect x="40" y="138" width="20" height="18" rx="3" fill="#374151"/>
  <line x1="40" y1="145" x2="25" y2="145" stroke="#10B981" stroke-width="2"/>
  <line x1="40" y1="152" x2="25" y2="152" stroke="#F87171" stroke-width="2"/>

</svg>