<svg xmlns="http://www.w3.org/2000/svg" viewBox="0 0 400 300" width="400" height="300">
  <rect width="400" height="300" fill="#1E1B4B" rx="16"/>
  
  <!-- premium black shelf unit -->
  <rect x="75" y="65" width="250" height="10" rx="4" fill="#4338CA"/>
  <rect x="75" y="125" width="250" height="10" rx="4" fill="#4338CA"/>
  <rect x="75" y="185" width="250" height="10" rx="4" fill="#4338CA"/>
  <rect x="75" y="65" width="10" height="130" rx="4" fill="#3730A3"/>
  <rect x="315" y="65" width="10" height="130" rx="4" fill="#3730A3"/>
  <!-- premium items on shelves -->
  <rect x="100" y="40" width="25" height="28" rx="4" fill="#6366F1"/>
  <rect x="135" y="35" width="20" height="33" rx="4" fill="#818CF8"/>
  <rect x="165" y="42" width="28" height="26" rx="4" fill="#6366F1"/>
  <rect x="205" y="38" width="22" height="30" rx="4" fill="#818CF8"/>
  <!-- gold accents -->
  <line x1="75" y1="65" x2="325" y2="65" stroke="#FCD34D" stroke-width="1"/>
  <line x1="75" y1="125" x2="325" y2="125" stroke="#FCD34D" stroke-width="1"/>
  <line x1="75" y1="185" x2="325" y2="185" stroke="#FCD34D" stroke-width="1"/>

</svg>